<?xml version="1.0" standalone="no"?>
<!DOCTYPE svg PUBLIC "-//W3C//DTD SVG 20010904//EN"
 "http://www.w3.org/TR/2001/REC-SVG-20010904/DTD/svg10.dtd">
<svg version="1.0" xmlns="http://www.w3.org/2000/svg"
 width="163.000000pt" height="163.000000pt" viewBox="0 0 163.000000 163.000000"
 preserveAspectRatio="xMidYMid meet">
<metadata>
Created by potrace 1.14, written by Peter Selinger 2001-2017
</metadata>
<g transform="translate(0.000000,163.000000) scale(0.100000,-0.100000)"
fill="#000000" stroke="none">
<path d="M1001 1282 c-78 -42 -374 -327 -397 -381 -38 -90 -9 -187 79 -267 29
-25 90 -83 137 -128 167 -159 202 -180 299 -177 75 2 123 33 273 173 185 173
197 185 220 237 25 54 20 134 -10 183 -26 43 -311 314 -368 352 -36 23 -57 29
-114 32 -60 3 -76 0 -119 -24z m-94 -384 c33 -23 39 -32 47 -79 12 -70 -73
-139 -146 -119 -39 11 -87 53 -89 79 -4 40 2 68 19 91 40 54 113 66 169 28z"/>
<path d="M438 1288 c-16 -5 -28 -14 -28 -19 0 -5 -6 -9 -12 -9 -7 0 -58 -43
-113 -96 -55 -53 -117 -111 -138 -130 -21 -20 -35 -40 -31 -46 4 -7 3 -8 -4
-4 -6 4 -26 -7 -43 -24 -18 -16 -29 -30 -25 -30 4 0 -2 -10 -13 -21 -26 -29
-36 -94 -21 -150 9 -37 30 -63 134 -164 270 -263 291 -278 386 -271 73 5 112
24 177 86 l52 49 -56 53 c-31 29 -68 66 -81 81 -14 15 -32 25 -39 22 -8 -2
-11 0 -8 5 3 5 -2 17 -12 27 -30 31 -51 68 -58 104 -9 47 -11 129 -4 129 3 0
14 18 24 40 11 24 60 80 126 142 l108 102 -52 49 c-29 27 -70 57 -92 68 -44
20 -131 24 -177 7z m-128 -386 c45 -17 64 -48 64 -104 0 -44 -4 -54 -30 -76
-16 -14 -28 -28 -27 -31 4 -14 -96 -3 -123 13 -63 37 -74 118 -24 171 37 40
85 49 140 27z"/>
</g>
</svg>
