<?xml version="1.0" standalone="no"?>
<!DOCTYPE svg PUBLIC "-//W3C//DTD SVG 20010904//EN"
 "http://www.w3.org/TR/2001/REC-SVG-20010904/DTD/svg10.dtd">
<svg version="1.0" xmlns="http://www.w3.org/2000/svg"
 width="447.000000pt" height="447.000000pt" viewBox="0 0 447.000000 447.000000"
 preserveAspectRatio="xMidYMid meet">
<metadata>
Created by potrace 1.14, written by Peter Selinger 2001-2017
</metadata>
<g transform="translate(0.000000,447.000000) scale(0.100000,-0.100000)"
fill="#000000" stroke="none">
<path d="M1512 3734 c3 -5 2 -18 -3 -29 -6 -15 -8 -16 -8 -4 -1 9 -10 19 -21
22 -24 6 -25 3 -4 -17 18 -19 2 -22 -18 -3 -19 17 -45 22 -31 5 9 -10 3 -13
-30 -14 -23 0 -46 4 -50 10 -6 7 -7 5 -4 -5 3 -9 1 -22 -4 -30 -6 -10 -9 -8
-10 11 -1 17 -3 20 -6 7 -2 -9 -9 -15 -14 -12 -16 11 -51 -15 -45 -33 5 -13 2
-12 -9 2 -8 11 -16 17 -16 13 -1 -4 -2 -11 -3 -16 0 -5 -5 -13 -10 -18 -5 -5
-6 -3 -2 5 9 15 4 15 -28 1 -16 -8 -22 -17 -18 -28 5 -14 4 -14 -12 -2 -9 8
-16 10 -15 5 3 -18 -3 -49 -7 -37 -3 7 -12 9 -20 6 -13 -5 -13 -7 -2 -14 10
-7 7 -14 -12 -32 -14 -12 -32 -21 -42 -19 -9 2 -19 -2 -23 -7 -3 -6 0 -8 8 -5
8 3 18 -1 23 -8 4 -7 4 -10 -1 -6 -11 10 -47 -11 -39 -23 4 -6 -4 -5 -17 2
-22 11 -23 11 -10 -4 12 -15 11 -17 -5 -17 -16 0 -17 -2 -4 -11 12 -9 10 -10
-8 -6 -20 5 -21 3 -10 -10 11 -14 10 -15 -10 -9 -14 5 -22 3 -22 -4 0 -6 -4
-9 -9 -5 -5 3 -12 1 -15 -4 -3 -4 2 -8 12 -7 9 0 17 -3 17 -9 0 -5 -5 -9 -12
-7 -8 2 -10 -3 -6 -15 7 -17 6 -17 -11 0 -23 23 -26 22 -20 -10 4 -22 3 -24
-10 -14 -12 10 -14 8 -9 -11 4 -18 3 -20 -6 -8 -9 13 -11 12 -11 -4 0 -16 -2
-17 -17 -5 -15 13 -15 12 -4 -10 7 -13 8 -21 2 -17 -12 8 -33 -28 -23 -39 4
-5 1 -5 -6 -1 -7 5 -11 15 -8 23 3 8 1 11 -5 8 -5 -4 -9 -14 -8 -23 3 -30 -1
-33 -23 -21 -21 11 -22 11 -9 -4 12 -15 11 -17 -5 -17 -16 0 -17 -2 -4 -11 12
-9 11 -10 -7 -6 -20 5 -22 3 -11 -16 l11 -22 -22 20 c-16 14 -22 15 -19 5 2
-8 8 -18 13 -22 6 -5 4 -8 -5 -8 -9 0 -22 6 -29 13 -11 10 -12 9 -5 -3 16 -29
14 -41 -7 -30 -24 13 -24 7 -1 -16 13 -13 13 -16 2 -12 -8 3 -24 9 -35 13
l-20 8 20 -16 c18 -15 19 -16 2 -17 -10 0 -15 -4 -12 -10 3 -5 1 -10 -4 -10
-6 0 -11 5 -11 12 0 6 -3 9 -6 6 -3 -4 0 -17 7 -30 l12 -23 -23 20 -23 20 13
-25 c12 -23 12 -24 -4 -11 -15 12 -16 12 -9 -5 6 -17 5 -18 -12 -4 -17 14 -18
14 -6 -7 10 -19 9 -22 -4 -17 -15 6 -22 -11 -8 -19 5 -2 2 -2 -6 0 -9 2 -11
-2 -7 -13 5 -14 4 -15 -9 -4 -8 7 -12 17 -8 23 3 6 1 7 -5 3 -6 -4 -8 -14 -5
-24 3 -9 3 -14 -2 -10 -9 8 -45 -34 -45 -52 0 -9 -4 -9 -17 1 -15 13 -15 12
-4 -10 8 -15 9 -21 2 -17 -6 4 -14 0 -17 -9 -5 -13 -9 -13 -22 -3 -13 12 -14
10 -3 -10 7 -13 10 -26 7 -30 -3 -3 -6 -1 -6 5 0 6 -7 13 -15 17 -12 4 -13 2
-5 -13 11 -21 -1 -23 -30 -7 -12 7 -13 6 -2 -5 6 -7 12 -20 12 -28 0 -10 -3
-12 -8 -6 -4 6 -14 11 -22 13 -10 3 -9 -3 5 -19 l20 -22 -22 11 c-19 11 -21 9
-16 -11 4 -18 3 -19 -6 -7 -9 13 -11 12 -11 -4 0 -16 -2 -17 -17 -5 -15 13
-15 12 -4 -8 12 -23 9 -27 -21 -24 -9 1 -19 -3 -23 -8 -3 -6 0 -8 8 -5 8 3 18
-1 23 -8 4 -7 4 -10 -1 -6 -11 10 -47 -11 -39 -23 4 -6 -4 -5 -17 2 -22 11
-23 11 -10 -4 12 -15 11 -17 -5 -17 -16 0 -17 -2 -4 -11 12 -9 10 -10 -8 -6
-20 5 -21 3 -10 -11 11 -13 11 -15 -4 -9 -12 4 -21 -1 -29 -16 -11 -19 -10
-20 3 -10 12 10 15 10 15 -1 0 -8 -9 -13 -22 -12 -14 2 -21 -3 -22 -15 -1 -12
3 -16 15 -12 15 4 15 3 2 -6 -8 -6 -23 -11 -33 -11 -10 0 -15 -5 -12 -10 4 -6
11 -7 17 -4 7 4 8 2 4 -4 -4 -6 -14 -8 -24 -5 -9 3 -14 3 -10 -2 4 -4 0 -14
-10 -22 -16 -12 -16 -13 0 -7 10 3 18 1 18 -5 0 -6 -3 -11 -8 -11 -4 0 -13
-10 -21 -21 -11 -19 -11 -21 1 -16 8 3 15 -1 15 -9 0 -7 -5 -10 -10 -7 -6 4
-8 0 -4 -10 4 -12 2 -14 -11 -10 -14 5 -15 3 -4 -8 15 -16 16 -29 1 -29 -5 0
-8 4 -5 8 3 5 -2 9 -10 9 -11 0 -9 -6 7 -23 15 -16 17 -24 8 -29 -8 -6 -10 -4
-4 6 8 12 6 12 -8 0 -18 -15 -23 -26 -7 -16 6 4 9 -4 7 -17 -1 -18 2 -22 18
-20 16 2 17 1 5 -7 -8 -5 -17 -8 -21 -5 -4 2 -10 0 -13 -5 -4 -5 -1 -13 5 -17
8 -5 9 -3 4 6 -5 8 -4 11 3 6 6 -3 9 -22 7 -41 -2 -22 1 -33 7 -29 6 4 6 -2
-1 -14 -6 -11 -14 -22 -18 -24 -5 -3 -2 -3 5 -2 6 2 12 -1 12 -7 0 -6 5 -7 12
-3 7 4 8 3 4 -5 -4 -6 -12 -9 -17 -6 -5 3 -6 -1 -3 -9 3 -9 10 -14 14 -11 4 3
11 -2 14 -11 4 -11 2 -15 -7 -11 -8 3 -14 -1 -14 -9 0 -8 6 -13 13 -10 7 3 18
-2 24 -10 7 -8 9 -14 4 -14 -5 0 -2 -5 6 -10 11 -8 7 -9 -15 -5 -16 3 -23 2
-15 -2 19 -8 34 -25 38 -42 1 -7 10 -20 18 -28 8 -9 13 -21 10 -28 -3 -8 2
-11 15 -8 11 3 19 0 19 -6 0 -7 -4 -10 -9 -6 -5 3 -12 1 -15 -4 -7 -11 13 -9
32 3 11 7 12 4 3 -12 -12 -22 0 -39 19 -27 6 3 10 -1 10 -9 0 -9 5 -16 11 -16
5 0 7 5 3 12 -4 6 -3 8 4 5 5 -4 8 -17 5 -30 -4 -22 -4 -22 12 -2 17 20 17 20
10 -2 -4 -17 -2 -23 8 -23 10 0 14 -7 10 -22 -4 -21 -3 -21 7 -5 6 9 16 15 21
11 7 -4 6 -10 0 -18 -8 -9 -6 -18 5 -32 14 -18 15 -18 4 4 -9 18 -8 22 5 22 9
0 13 -4 10 -10 -3 -5 -1 -10 6 -10 7 0 10 -3 6 -6 -3 -4 1 -13 9 -21 8 -8 12
-19 8 -24 -3 -5 -2 -8 3 -7 14 4 53 -13 53 -23 0 -6 6 -7 12 -3 8 5 7 0 -2
-11 -14 -16 -13 -17 8 -11 12 4 23 4 23 -1 1 -4 3 -18 4 -31 1 -13 8 -29 15
-35 10 -10 10 -7 1 11 -10 18 -9 22 4 22 9 0 13 -4 10 -10 -3 -5 -1 -10 5 -10
6 0 8 -5 5 -10 -11 -18 5 -31 24 -21 13 7 18 6 18 -4 0 -8 -4 -12 -8 -9 -4 2
-11 0 -14 -6 -4 -6 -3 -10 2 -9 18 3 36 -1 30 -8 -4 -3 3 -13 14 -21 16 -11
23 -12 29 -2 5 8 9 7 13 -5 4 -9 3 -13 -3 -10 -6 3 -10 1 -10 -4 0 -6 4 -11
10 -11 5 0 7 -8 4 -17 -5 -16 -4 -16 6 0 11 17 12 17 29 -2 10 -11 22 -17 26
-13 5 4 5 1 1 -6 -6 -11 -12 -10 -27 4 -10 9 -19 13 -19 7 0 -5 11 -16 25 -23
13 -7 21 -18 18 -23 -4 -6 0 -8 10 -4 10 3 17 2 17 -4 0 -6 4 -7 10 -4 6 4 10
-5 10 -20 0 -15 4 -24 10 -20 6 4 7 11 4 17 -4 7 -2 8 4 4 6 -4 9 -13 5 -21
-3 -10 1 -15 11 -15 9 0 19 -7 22 -15 4 -8 11 -12 18 -8 7 4 7 1 -1 -8 -10
-13 -10 -19 3 -35 14 -18 15 -18 4 3 -9 19 -8 23 5 23 9 0 13 -4 10 -10 -3 -5
-1 -10 5 -10 6 0 8 -5 5 -10 -11 -18 5 -31 24 -21 13 7 18 6 18 -4 0 -8 -4
-12 -8 -9 -4 2 -11 0 -14 -6 -4 -6 -3 -10 2 -9 18 3 36 -1 30 -8 -4 -3 3 -13
14 -21 16 -11 23 -12 29 -2 5 8 9 7 13 -5 4 -9 3 -13 -3 -10 -6 3 -10 1 -10
-4 0 -6 4 -11 10 -11 5 0 7 -8 3 -17 -5 -17 -5 -17 8 -1 13 15 15 16 29 0 13
-14 12 -15 -3 -9 -9 3 -17 2 -17 -3 0 -6 9 -10 21 -10 13 0 23 -8 26 -21 3
-11 11 -18 19 -15 7 3 16 0 20 -6 4 -6 3 -8 -4 -4 -6 3 -13 2 -17 -4 -3 -5 2
-10 13 -10 26 0 33 -10 21 -31 -16 -30 -1 -22 16 9 10 17 14 20 11 7 -7 -24 8
-50 22 -41 6 4 16 -3 22 -15 8 -15 9 -19 1 -15 -6 4 -11 2 -11 -5 0 -6 8 -9
20 -6 11 3 23 1 26 -4 3 -5 11 -6 17 -3 7 4 9 4 5 -1 -4 -4 6 -25 23 -46 26
-34 33 -37 55 -29 23 9 24 8 14 -11 -11 -19 -10 -20 12 -8 21 11 22 11 9 -4
-8 -10 -9 -17 -3 -17 6 0 13 4 17 10 9 14 55 -10 55 -29 0 -14 2 -14 10 -1 8
13 10 13 10 1 0 -11 4 -10 16 5 8 10 13 14 10 8 -8 -16 19 -25 32 -12 7 7 18
2 35 -16 27 -29 32 -12 7 20 -14 17 -13 18 1 6 10 -7 25 -14 35 -16 11 -2 24
-5 29 -6 26 -6 46 1 39 13 -4 6 2 4 14 -7 19 -17 22 -17 28 -3 4 13 10 14 24
7 28 -15 36 -12 14 5 -11 9 -14 15 -6 16 6 1 18 2 25 4 6 1 23 -5 37 -13 14
-8 22 -11 18 -7 -11 11 12 36 25 28 6 -3 7 -1 3 6 -4 6 -11 9 -16 6 -5 -3 -11
-1 -15 4 -3 6 3 8 15 6 11 -2 24 4 30 13 9 14 10 12 5 -8 -4 -17 -3 -21 3 -12
5 7 18 15 28 16 10 2 18 9 16 15 -1 6 3 11 9 11 5 0 7 5 4 10 -11 17 5 32 21
19 11 -9 14 -8 14 7 0 16 2 17 11 4 9 -12 10 -11 6 7 -4 17 -1 21 14 18 11 -2
17 0 14 6 -6 8 8 13 28 10 4 0 6 2 6 6 -1 5 -1 17 0 28 1 17 3 18 12 5 9 -12
10 -11 6 7 -4 17 -1 21 15 18 15 -3 17 -1 9 9 -11 14 -5 26 13 26 6 0 4 -5 -4
-10 -12 -7 -10 -9 7 -7 12 0 19 5 16 10 -3 4 3 15 13 23 11 9 14 13 7 10 -6
-4 -15 -1 -19 6 -4 7 -4 10 1 6 4 -4 14 0 22 10 8 9 12 11 8 5 -3 -7 -1 -21 5
-30 8 -14 10 -14 9 -3 -1 8 -1 24 0 35 1 17 3 18 12 5 9 -12 10 -11 6 7 -4 17
-1 21 15 18 15 -3 17 -1 9 9 -8 10 -7 17 6 27 11 9 14 10 9 2 -4 -7 -2 -13 3
-13 6 0 11 9 11 21 0 11 4 18 10 14 5 -3 6 -13 3 -23 -4 -14 -3 -13 10 3 8 10
13 25 10 31 -2 7 1 15 8 20 8 5 10 3 4 -6 -6 -9 -4 -11 4 -6 7 5 10 15 7 23
-5 11 -1 13 16 7 20 -6 21 -5 9 10 -12 15 -12 16 5 10 10 -4 103 -90 206 -193
103 -102 207 -198 230 -214 176 -120 397 -132 590 -30 61 32 128 95 580 547
283 283 526 534 544 563 116 180 116 423 -1 608 -17 28 -260 278 -543 561
-452 452 -518 515 -580 547 -169 89 -355 91 -532 5 -54 -26 -99 -65 -272 -236
-135 -133 -211 -201 -219 -197 -8 5 -10 4 -5 -3 4 -7 2 -12 -3 -12 -6 0 -11 9
-11 20 0 16 -5 19 -25 16 -15 -3 -23 -1 -20 5 4 5 11 7 16 4 5 -4 9 1 9 10 0
9 -4 13 -10 10 -5 -3 -10 0 -10 7 0 9 -3 9 -10 -2 -8 -13 -10 -13 -10 2 0 9 3
18 8 21 4 2 1 2 -5 1 -7 -2 -23 1 -35 7 -21 9 -21 9 -2 6 12 -3 21 1 21 8 0 7
-6 11 -14 8 -7 -3 -16 2 -19 11 -3 9 -11 16 -16 16 -6 0 -7 -7 -4 -16 3 -8 2
-12 -4 -9 -16 10 -11 33 8 38 11 3 8 5 -9 6 -29 1 -49 19 -53 48 -2 10 -10 17
-19 15 -8 -1 -18 7 -22 18 -3 11 -11 20 -16 20 -6 0 -8 -4 -5 -8 3 -5 -1 -9
-8 -9 -19 0 -8 25 12 30 10 3 7 5 -8 6 -35 1 -70 28 -70 53 0 14 -5 18 -16 14
-12 -4 -15 -2 -10 9 3 8 1 15 -4 15 -5 0 -7 8 -4 18 5 13 4 14 -4 3 -5 -7 -16
-10 -23 -7 -8 4 -5 0 5 -8 11 -9 15 -16 9 -16 -11 0 -40 30 -35 37 10 13 -2
25 -22 21 -17 -4 -23 -1 -19 9 3 9 -3 13 -21 13 -14 0 -26 4 -26 9 0 5 -9 11
-20 14 -11 3 -18 1 -15 -3 3 -5 0 -12 -6 -16 -7 -4 -9 -3 -5 4 12 19 -22 41
-52 33 -15 -4 -38 -6 -52 -4 -14 2 -31 4 -38 5 -7 1 -11 7 -8 14 3 8 0 16 -6
20 -6 4 -9 3 -6 -2z m141 -48 c4 -10 1 -13 -8 -9 -8 3 -12 9 -9 14 7 12 11 11
17 -5z m147 -60 c0 -2 -7 -7 -16 -10 -8 -3 -12 -2 -9 4 6 10 25 14 25 6z
m-586 -14 c3 -5 -1 -9 -9 -9 -8 0 -15 4 -15 9 0 4 4 8 9 8 6 0 12 -4 15 -8z
m374 -24 c-2 -8 6 -13 20 -12 12 1 22 -3 22 -8 0 -5 4 -7 8 -4 4 2 14 0 22 -6
12 -8 12 -9 -2 -4 -12 3 -15 1 -12 -9 4 -10 12 -11 29 -5 13 5 26 6 30 2 4 -4
12 -7 18 -7 7 0 11 -10 9 -23 -2 -12 2 -22 8 -22 6 0 9 4 5 9 -3 5 -1 13 5 16
6 4 9 1 8 -7 -2 -7 3 -12 10 -10 8 1 11 -2 8 -7 -7 -11 22 -23 37 -15 9 5 9 4
1 -5 -9 -10 -17 -10 -32 -2 -11 6 -27 11 -34 10 -7 0 -1 -5 15 -11 15 -5 25
-13 22 -18 -3 -4 3 -7 12 -6 10 0 18 -6 18 -14 0 -8 8 -14 17 -12 9 1 19 -6
23 -18 3 -11 11 -20 16 -20 6 0 8 4 5 8 -3 5 1 9 9 9 19 0 19 -2 -1 -21 -14
-15 -14 -16 5 -16 12 0 21 -6 21 -14 0 -7 7 -20 17 -27 15 -13 15 -12 3 11
-12 23 -12 24 3 11 10 -7 17 -22 17 -32 0 -15 6 -18 25 -15 15 3 23 1 20 -5
-4 -5 -11 -7 -16 -4 -5 4 -9 -1 -9 -10 0 -9 5 -13 10 -10 9 5 14 -7 12 -26 -1
-4 7 -5 17 -2 22 6 57 -39 45 -58 -4 -7 -3 -9 3 -6 11 7 28 -20 24 -36 -1 -5
3 -6 9 -2 6 4 4 15 -6 31 -9 13 -14 27 -11 30 3 3 8 -4 12 -15 3 -12 10 -19
15 -16 10 6 8 -15 -4 -33 -4 -7 -14 -11 -21 -8 -8 3 -11 -2 -8 -15 3 -11 0
-19 -6 -19 -7 0 -9 5 -5 12 4 7 3 8 -5 4 -9 -6 -9 -11 -1 -21 7 -9 7 -15 -2
-23 -13 -10 -18 -12 -39 -12 -5 0 -7 -6 -3 -12 6 -9 3 -9 -9 0 -9 8 -22 10
-28 6 -8 -4 -9 -3 -5 4 4 7 3 12 -3 12 -10 0 -27 39 -23 53 1 5 -2 6 -7 3 -5
-3 -16 -3 -25 0 -12 5 -14 10 -6 19 9 11 7 12 -9 8 -12 -3 -18 -10 -14 -17 4
-6 -1 -5 -10 3 -9 7 -17 22 -17 33 0 10 -6 18 -12 17 -25 -3 -38 1 -38 12 0 8
4 8 13 0 10 -8 14 -7 14 4 0 8 -4 12 -9 9 -4 -3 -8 0 -8 7 0 8 -5 7 -17 -2
-11 -10 -14 -10 -9 -1 4 7 1 12 -8 12 -9 0 -16 -5 -16 -12 0 -6 -3 -8 -6 -5
-4 4 -1 13 6 22 11 13 10 14 -5 9 -14 -6 -16 -4 -10 7 4 8 5 11 0 7 -4 -4 -17
-3 -28 3 -10 6 -17 7 -14 2 3 -4 -6 -8 -19 -8 -20 0 -22 2 -9 11 12 9 4 11
-35 8 -28 -1 -50 2 -50 7 0 6 6 7 13 3 9 -5 9 -4 -1 7 -16 17 -62 20 -55 3 2
-6 -1 -15 -7 -19 -6 -3 -9 -1 -8 6 3 13 -55 14 -96 2 -11 -3 -16 -1 -12 5 3 6
-2 9 -11 7 -10 -1 -23 2 -30 7 -7 6 -14 5 -18 -2 -4 -6 -2 -9 3 -8 10 3 12 -1
12 -24 0 -9 -3 -8 -10 2 -8 13 -11 12 -25 -5 -9 -11 -14 -15 -11 -9 3 7 -1 15
-10 18 -8 3 -12 2 -9 -4 3 -6 1 -10 -5 -10 -6 0 -9 -4 -5 -9 3 -5 1 -13 -5
-16 -6 -4 -9 -1 -8 6 2 6 -3 14 -10 16 -7 3 -11 -1 -10 -7 2 -7 -3 -15 -11
-18 -9 -3 -11 0 -7 9 4 8 1 6 -7 -3 -8 -10 -18 -14 -22 -10 -5 4 -5 -1 -2 -10
4 -13 2 -15 -11 -11 -9 3 -14 3 -10 -2 7 -8 -15 -35 -28 -35 -5 0 -3 5 4 12
15 15 15 28 1 28 -5 0 -7 -4 -4 -10 3 -5 -1 -10 -9 -10 -10 0 -13 -6 -9 -17 6
-16 5 -17 -12 -3 -17 14 -18 14 -5 -10 12 -23 12 -24 -4 -11 -9 8 -19 11 -23
7 -3 -3 -1 -6 5 -6 7 0 12 -4 12 -10 0 -5 -7 -10 -16 -10 -9 0 -12 -5 -8 -12
5 -7 2 -9 -9 -5 -9 3 -18 0 -21 -9 -4 -10 -2 -12 6 -8 7 5 8 3 4 -5 -5 -7 -15
-10 -23 -7 -12 5 -14 0 -10 -21 5 -27 4 -27 -10 -8 -15 19 -15 19 -10 -3 3
-13 3 -22 0 -19 -8 9 -32 -17 -25 -28 3 -5 -1 -5 -9 2 -11 9 -18 8 -32 -2 -16
-11 -16 -13 -2 -19 11 -4 14 -2 9 7 -4 6 -4 9 0 5 4 -3 7 -10 7 -15 -1 -8 -5
-9 -38 -12 -15 -1 -15 -3 2 -15 18 -13 18 -14 -8 -9 -21 4 -26 2 -21 -10 3 -8
0 -18 -7 -23 -8 -4 -10 -3 -5 4 4 8 2 10 -8 6 -9 -3 -12 -12 -9 -21 5 -12 3
-14 -7 -8 -10 6 -12 4 -7 -9 4 -9 3 -15 -2 -12 -5 3 -12 -1 -15 -10 -3 -9 -12
-14 -19 -11 -17 6 -47 -22 -40 -39 3 -9 0 -14 -8 -12 -9 2 -14 -6 -13 -21 1
-22 0 -23 -13 -6 -12 18 -13 18 -13 -1 0 -21 -18 -44 -34 -44 -5 0 -2 6 9 13
14 11 15 16 5 22 -8 5 -11 4 -7 -2 4 -6 0 -14 -8 -17 -12 -4 -13 -10 -6 -24 9
-17 7 -18 -15 -14 -19 3 -23 1 -18 -11 3 -8 0 -18 -7 -23 -8 -5 -10 -3 -4 5 6
10 3 11 -14 2 -11 -7 -21 -14 -21 -17 0 -3 5 -2 10 1 6 3 10 1 10 -6 0 -6 -8
-9 -20 -6 -10 3 -19 2 -18 -2 2 -21 -3 -31 -14 -25 -10 6 -10 4 0 -8 10 -13
10 -18 1 -24 -7 -4 -9 -3 -6 3 4 6 0 13 -8 16 -12 5 -12 1 -4 -21 6 -15 7 -23
3 -19 -4 4 -14 1 -23 -6 -14 -10 -14 -10 -3 5 9 11 10 18 2 23 -6 4 -9 3 -8
-2 1 -4 -4 -19 -11 -32 -7 -13 -9 -21 -3 -17 6 3 9 -5 8 -19 -1 -23 -2 -24
-14 -8 -10 14 -14 15 -25 3 -7 -8 -8 -10 -1 -7 7 4 14 0 18 -8 4 -11 -1 -15
-17 -15 -14 0 -18 -3 -10 -8 8 -5 9 -13 3 -22 -6 -8 -10 -11 -10 -7 0 5 -4 5
-10 2 -6 -4 -3 -17 7 -33 16 -24 16 -26 1 -14 -12 10 -18 10 -24 1 -4 -8 -3
-9 4 -5 7 4 12 5 12 2 0 -2 3 -11 6 -20 3 -9 1 -16 -6 -16 -6 0 -8 5 -5 10 3
6 1 10 -4 10 -6 0 -11 -4 -11 -10 0 -5 0 -13 0 -17 0 -5 5 -9 10 -9 21 -3 22
-4 10 -19 -6 -8 -9 -19 -5 -24 4 -7 -1 -8 -12 -4 -10 3 -15 3 -11 -2 4 -4 3
-14 -4 -22 -8 -10 -8 -12 4 -8 9 4 15 0 15 -9 0 -8 -4 -13 -8 -11 -4 3 -6 -3
-4 -12 1 -10 -3 -24 -9 -32 -8 -11 -8 -13 2 -7 7 4 12 2 12 -4 0 -6 5 -8 12
-4 7 4 8 3 4 -5 -4 -6 -12 -9 -17 -6 -5 4 -9 1 -9 -4 0 -10 14 -15 33 -12 5 1
6 -3 2 -9 -3 -6 -11 -8 -16 -5 -5 3 -6 -1 -3 -9 3 -9 9 -14 13 -11 4 2 8 -2 8
-10 0 -8 -5 -11 -10 -8 -5 3 -7 0 -5 -8 3 -8 14 -13 24 -11 15 2 16 1 4 -7 -8
-5 -17 -8 -21 -5 -4 2 -11 -1 -15 -7 -4 -8 -3 -9 4 -5 12 7 35 -27 25 -38 -3
-3 -1 -6 7 -6 10 0 10 -3 1 -14 -9 -11 -9 -16 0 -22 8 -4 9 -3 5 4 -4 7 -1 12
8 12 19 0 22 -30 4 -31 -10 0 -10 -2 0 -6 6 -2 9 -10 6 -15 -4 -7 -2 -8 5 -4
6 4 9 11 6 16 -3 5 -1 11 4 15 6 3 8 -4 6 -15 -2 -12 2 -23 10 -26 7 -3 16
-13 19 -21 5 -13 4 -14 -9 -3 -9 7 -18 10 -21 7 -9 -9 35 -29 48 -21 7 4 8 3
4 -4 -4 -7 -3 -12 2 -12 5 0 15 -14 22 -30 7 -16 19 -30 28 -30 8 0 13 -3 9
-6 -3 -3 3 -15 13 -27 16 -16 17 -23 7 -35 -9 -12 -5 -11 15 2 28 18 37 13 33
-17 -3 -15 -1 -16 13 -5 12 10 14 10 8 1 -4 -8 -1 -13 8 -13 9 0 16 -5 16 -11
0 -5 -4 -8 -8 -5 -4 2 -14 0 -22 -5 -11 -7 -8 -8 10 -5 28 4 73 -21 64 -36 -3
-5 0 -15 6 -23 6 -8 8 -20 4 -27 -5 -10 -4 -10 6 -1 10 9 10 16 2 26 -9 10 -8
14 3 14 7 0 14 -3 13 -6 -2 -22 4 -31 15 -25 9 6 9 4 -1 -8 -11 -14 -10 -16
11 -14 13 2 24 -2 24 -9 0 -7 -9 -11 -21 -8 -18 3 -17 2 2 -7 13 -5 28 -8 32
-5 5 3 12 0 16 -6 3 -6 1 -15 -6 -19 -8 -5 -5 -9 9 -13 12 -3 21 0 21 6 0 6 6
2 14 -8 8 -11 12 -23 9 -28 -2 -4 1 -14 7 -22 6 -8 8 -20 4 -27 -5 -10 -4 -10
6 -1 10 9 10 16 2 26 -9 10 -8 14 3 14 7 0 14 -3 13 -6 -2 -22 4 -31 15 -25 7
5 6 0 -3 -11 -8 -10 -10 -16 -3 -12 6 4 14 1 16 -5 4 -10 8 -9 16 2 10 13 11
13 12 0 1 -8 1 -19 0 -24 -1 -5 6 -6 15 -2 14 5 15 4 4 -9 -8 -9 -8 -15 -2
-15 6 0 14 -9 17 -21 5 -16 10 -18 21 -8 8 6 14 7 14 2 0 -12 34 -53 44 -53 4
0 4 5 1 11 -4 6 3 5 14 -3 14 -8 20 -20 17 -31 -3 -11 -2 -16 1 -13 4 3 13 0
21 -7 11 -8 14 -8 9 0 -4 6 -3 15 3 18 6 4 10 3 9 -2 -4 -22 2 -32 16 -27 8 4
12 11 8 18 -3 6 -2 7 2 3 12 -10 15 -38 4 -31 -5 3 -9 0 -9 -5 0 -12 13 -14
24 -4 15 15 38 12 31 -5 -5 -13 -2 -12 17 3 13 11 17 13 11 5 -19 -21 -16 -28
10 -25 37 4 38 5 31 17 -5 7 -3 8 5 3 9 -5 10 -10 2 -18 -6 -6 -11 -16 -11
-21 0 -7 3 -7 8 0 4 7 18 14 32 15 14 2 28 9 32 14 5 6 8 6 8 -1 0 -6 12 -10
28 -9 15 1 37 -2 50 -7 14 -5 21 -4 17 1 -3 5 0 13 6 17 8 4 9 3 5 -4 -4 -7
-2 -12 5 -12 8 0 7 -5 -2 -17 -13 -15 -12 -15 8 -2 16 9 19 16 10 21 -7 4 -9
8 -5 8 3 0 14 3 24 7 12 4 15 3 10 -6 -6 -8 -1 -11 16 -8 48 10 69 20 64 32
-3 8 2 11 15 8 10 -3 16 -10 12 -16 -3 -6 -1 -7 6 -3 9 6 9 11 1 21 -9 11 -6
13 15 10 20 -2 25 1 20 13 -5 13 -3 13 11 1 15 -12 16 -11 10 8 -6 19 -4 21
17 17 16 -2 30 2 38 14 13 15 12 16 -3 3 -10 -7 -18 -9 -18 -3 0 15 26 22 39
9 8 -8 9 -5 6 11 -2 12 1 25 7 28 7 4 8 2 4 -4 -8 -14 29 -11 41 3 5 4 3 5 -3
2 -7 -4 -17 0 -24 8 -11 13 -10 14 3 9 9 -3 24 -1 34 6 16 10 15 10 -7 6 -22
-5 -21 -4 5 9 17 8 26 14 21 15 -5 0 1 11 14 25 23 24 40 25 40 2 0 -8 -3 -8
-9 2 -6 9 -11 10 -15 2 -6 -10 6 -15 27 -12 4 1 10 -6 13 -14 4 -8 10 -15 16
-15 5 0 6 5 2 12 -4 7 -3 8 4 4 6 -4 9 -13 5 -21 -3 -11 2 -15 18 -16 13 0 18
-3 12 -6 -7 -2 -13 -9 -13 -15 0 -6 7 -8 15 -4 13 5 14 2 4 -15 -7 -13 -7 -19
-1 -15 16 9 26 -14 13 -27 -9 -9 -11 -8 -6 4 4 11 0 15 -14 14 -11 -1 -24 -5
-28 -10 -5 -4 -3 -5 3 -2 7 4 14 0 17 -7 4 -10 0 -14 -11 -11 -10 2 -26 -3
-36 -10 -18 -13 -17 -14 2 -12 11 0 18 5 15 11 -3 5 -1 6 6 2 14 -9 5 -26 -15
-26 -9 0 -22 -7 -31 -15 -8 -8 -18 -13 -22 -10 -5 2 -6 -7 -3 -22 4 -20 2 -24
-8 -18 -10 6 -12 4 -7 -8 3 -9 3 -16 -2 -14 -4 1 -20 -13 -35 -30 -15 -18 -30
-32 -34 -32 -23 4 -32 -4 -32 -28 0 -21 -3 -24 -9 -13 -6 8 -7 19 -3 25 3 5
-1 4 -10 -3 -9 -7 -15 -22 -13 -32 3 -14 -1 -17 -13 -13 -15 6 -16 5 -2 -12
14 -17 14 -18 -9 -6 -15 8 -21 9 -17 2 4 -6 -3 -15 -16 -20 -13 -6 -17 -10
-10 -10 7 -1 10 -6 7 -11 -5 -8 -11 -8 -20 0 -9 7 -16 6 -25 -5 -7 -9 -20 -13
-28 -10 -12 4 -13 3 -2 -10 10 -13 9 -15 -9 -15 -14 0 -20 4 -15 12 4 7 3 8
-5 4 -6 -4 -8 -12 -5 -18 5 -7 0 -9 -13 -6 -17 4 -20 2 -16 -16 4 -16 2 -18
-5 -7 -11 16 -46 25 -36 10 3 -5 10 -6 16 -3 7 4 8 2 4 -4 -5 -9 -13 -9 -29 0
-20 10 -21 10 -9 -5 12 -14 11 -15 -15 -8 -18 5 -37 5 -49 -2 -17 -9 -18 -9
-5 6 17 21 8 22 -13 1 -15 -14 -16 -14 -16 1 0 9 -5 13 -10 10 -6 -4 -8 -10
-5 -15 3 -5 -5 -7 -17 -5 -13 3 -24 9 -26 15 -2 5 -8 10 -13 10 -6 0 -7 -6 -4
-12 4 -7 -3 -2 -14 11 -13 14 -21 18 -21 10 0 -11 -2 -11 -9 1 -6 8 -7 18 -5
22 3 4 0 8 -6 8 -7 0 -9 -9 -6 -22 3 -13 3 -17 0 -10 -3 6 -9 10 -14 7 -4 -2
-7 3 -6 13 0 9 -3 17 -9 17 -5 0 -9 -6 -7 -14 3 -12 2 -12 -10 0 -8 8 -17 22
-21 31 -3 10 -12 18 -19 18 -9 0 -9 -3 2 -11 13 -9 13 -10 0 -6 -9 2 -14 14
-12 28 2 21 1 22 -10 7 -12 -15 -15 -14 -38 9 -14 14 -19 23 -12 19 6 -4 12
-2 12 5 0 7 -8 9 -21 6 -16 -4 -18 -3 -8 9 9 11 8 14 -2 14 -11 0 -11 2 1 10
8 5 10 10 5 10 -6 0 -17 -6 -24 -12 -9 -8 -11 -8 -8 -2 4 7 -4 15 -21 19 -15
4 -21 10 -14 12 21 8 13 26 -9 20 -16 -4 -18 -3 -8 9 9 11 9 14 -1 14 -10 0
-9 4 1 18 10 13 8 12 -10 -3 -14 -11 -21 -14 -16 -6 6 11 4 13 -8 8 -11 -4
-14 -2 -10 8 3 8 10 12 16 8 6 -3 7 -1 3 6 -6 9 -11 9 -21 1 -9 -8 -12 -5 -10
14 2 19 -1 23 -16 19 -11 -3 -19 0 -19 6 0 7 4 10 8 7 5 -3 9 1 9 9 0 13 -3
12 -19 -1 -17 -16 -18 -16 -14 14 2 23 0 29 -11 25 -10 -4 -11 -9 -3 -18 8
-10 8 -15 -1 -21 -8 -4 -9 -3 -5 5 4 6 0 14 -10 18 -16 6 -16 7 0 18 15 11 15
13 1 19 -9 3 -13 2 -10 -4 3 -6 1 -10 -4 -10 -6 0 -11 7 -11 15 0 8 -13 21
-30 30 -33 17 -40 27 -12 19 16 -5 16 -5 -1 6 -9 6 -21 9 -26 5 -5 -3 -12 -1
-15 4 -4 5 -1 13 5 17 8 5 9 3 4 -6 -5 -9 -4 -11 4 -6 6 4 9 12 5 17 -3 5 -9
7 -13 5 -4 -3 -14 6 -21 19 -7 13 -17 22 -22 19 -5 -3 -1 -12 9 -20 16 -13 15
-13 -10 -2 -15 6 -23 14 -18 17 14 9 17 26 6 29 -5 2 -17 9 -25 15 -13 10 -13
10 -1 -5 7 -10 18 -15 25 -11 6 3 7 2 3 -2 -11 -12 -38 -15 -31 -4 3 5 -2 12
-11 15 -12 5 -13 10 -4 20 9 11 7 15 -6 20 -10 4 -21 1 -26 -7 -7 -12 -9 -12
-10 1 -1 8 -1 21 0 29 2 7 -2 10 -8 6 -6 -3 -11 1 -11 10 0 9 -5 13 -11 9 -8
-4 -9 1 -4 17 5 19 4 21 -4 9 -8 -11 -11 -12 -11 -2 0 7 -5 10 -10 7 -6 -3
-10 -1 -10 5 0 6 -5 8 -12 4 -8 -5 -7 0 2 11 9 11 10 16 3 11 -8 -4 -13 -2
-13 5 0 9 -3 9 -14 0 -12 -10 -13 -8 -8 11 5 21 4 22 -14 8 -18 -14 -18 -14
-3 10 16 24 16 26 -1 26 -10 0 -17 -4 -14 -7 2 -4 -1 -11 -7 -15 -8 -4 -9 -3
-5 4 4 7 1 12 -6 12 -9 1 -7 5 5 14 16 12 16 14 2 20 -9 3 -13 2 -10 -4 3 -6
2 -10 -3 -10 -5 0 -12 9 -15 21 -4 16 -11 19 -29 14 -20 -5 -21 -4 -5 5 18 12
15 30 -6 30 -7 0 -6 -4 3 -10 8 -5 11 -10 5 -10 -5 0 -16 4 -24 9 -11 7 -10
10 4 18 16 9 16 11 1 16 -10 4 -15 3 -11 -3 3 -6 2 -10 -3 -10 -5 0 -12 9 -15
21 -4 16 -11 19 -29 15 -13 -3 -17 -3 -10 0 10 5 9 9 -5 20 -17 13 -17 14 2 8
18 -5 18 -4 2 6 -9 6 -21 9 -26 5 -5 -3 -12 -1 -15 4 -4 5 -1 13 5 17 8 5 9 3
4 -7 -5 -8 -5 -11 -1 -7 8 7 9 20 1 16 -9 -5 -36 42 -30 52 3 6 -1 7 -10 4
-14 -6 -14 -8 1 -25 22 -25 13 -24 -15 0 -20 17 -21 20 -5 29 15 8 15 9 0 15
-10 4 -15 3 -11 -3 3 -6 -1 -10 -9 -10 -10 0 -13 6 -10 15 5 12 2 14 -12 8
-17 -6 -18 -5 -4 13 8 10 10 16 6 12 -5 -4 -17 2 -27 14 -22 25 -25 35 -6 19
10 -8 14 -7 14 2 0 16 -29 18 -40 3 -5 -6 -5 0 -2 13 5 17 4 22 -5 16 -9 -5
-11 -4 -6 4 6 9 11 9 22 0 12 -10 13 -9 8 5 -3 9 -10 16 -16 16 -5 0 -6 6 -2
13 5 8 2 7 -9 -2 -16 -12 -17 -12 -10 5 3 10 11 23 17 27 6 5 2 6 -9 3 -14 -4
-25 1 -34 17 -13 20 -13 21 3 8 14 -12 19 -12 29 -1 9 10 9 11 -1 6 -16 -10
-29 24 -13 34 9 5 8 9 -4 13 -10 5 -14 3 -9 -5 4 -7 3 -8 -5 -4 -15 10 -4 26
17 26 13 1 11 5 -8 16 -14 8 -17 13 -8 10 10 -3 20 -1 23 4 4 6 -1 10 -9 10
-8 0 -18 4 -21 10 -3 5 0 7 8 4 8 -3 18 0 23 7 4 8 3 10 -4 5 -7 -4 -12 -2
-12 4 0 6 -5 8 -12 4 -9 -5 -9 -2 1 9 7 9 10 17 6 17 -4 0 -2 6 4 14 6 7 8 22
4 32 -7 18 -6 18 11 2 9 -10 20 -18 24 -18 3 0 1 5 -6 12 -18 18 -15 31 5 24
15 -5 15 -4 -1 9 -16 12 -17 15 -4 15 10 0 14 8 13 25 -2 14 1 23 6 19 5 -3 9
0 9 6 0 6 5 8 10 5 6 -3 10 -1 10 4 0 6 -6 11 -12 12 -10 0 -10 2 0 6 6 2 9
10 6 15 -4 7 -2 8 4 4 7 -4 12 -3 12 2 0 5 9 21 21 36 18 23 23 25 37 14 13
-11 14 -11 7 1 -6 11 -4 13 7 8 12 -4 14 -1 11 14 -5 18 6 24 31 20 5 -1 4 5
-3 13 -7 9 -18 13 -24 9 -6 -3 -7 -1 -3 5 5 9 14 7 31 -4 22 -15 23 -14 18 7
-5 18 -3 21 10 16 19 -7 33 10 29 35 -2 9 2 19 7 23 6 3 8 0 5 -8 -3 -8 1 -14
9 -14 9 0 12 7 9 19 -2 10 1 19 7 19 6 1 17 2 24 3 6 0 13 7 13 14 1 6 2 19 3
27 0 8 6 15 12 15 5 0 8 -4 5 -8 -3 -5 1 -9 8 -9 8 0 12 7 8 15 -4 11 -2 13 9
7 11 -7 11 -5 -1 10 -14 17 -14 17 6 7 18 -10 20 -8 18 17 -2 24 1 27 27 25
16 -1 29 2 29 8 0 5 -10 7 -22 4 -16 -4 -14 -2 5 6 15 7 27 16 27 21 0 4 -4 5
-10 2 -17 -11 -11 0 11 18 20 18 21 18 14 -2 -3 -12 -2 -21 3 -21 6 0 9 13 8
29 -2 26 1 29 25 27 25 -2 27 0 17 18 -10 20 -10 20 7 6 15 -12 17 -12 10 -1
-6 11 -4 13 7 9 8 -4 15 0 15 8 0 7 -4 11 -9 8 -4 -3 -8 0 -8 5 0 6 7 12 15
12 8 1 21 2 28 3 6 0 13 7 13 14 1 6 2 17 3 23 0 6 9 9 19 7 12 -3 19 0 19 9
0 8 -6 12 -14 9 -8 -3 -11 -1 -8 5 4 5 14 9 23 7 25 -4 42 10 35 29 -5 13 -2
15 16 10 21 -5 22 -4 7 18 -11 17 -13 26 -4 31 6 4 8 3 5 -3 -4 -6 0 -17 9
-24 8 -7 14 -8 13 -3 -4 25 2 36 20 31 15 -3 18 -1 14 11 -5 11 -3 13 8 7 12
-7 12 -6 1 7 -8 10 -9 19 -3 22 5 4 13 2 16 -4 11 -17 34 8 28 29 -3 10 0 22
6 25 6 4 9 1 5 -7 -3 -8 1 -14 10 -14 8 0 12 6 8 15 -4 11 -2 13 9 7 11 -7 11
-5 -1 10 -14 17 -14 17 6 7 18 -10 20 -8 18 17 -2 24 1 27 27 25 16 -1 29 2
29 8 0 5 -9 6 -21 3 -20 -7 -20 -6 -3 14 17 19 19 20 38 3 20 -16 20 -16 6 2
-13 18 -13 19 1 14 13 -5 16 -2 12 13 -5 18 6 24 31 20 5 -1 4 5 -3 13 -7 9
-18 13 -24 9 -6 -3 -7 -1 -3 5 5 9 14 7 31 -4 22 -15 23 -14 18 7 -5 18 -3 21
12 15 16 -6 16 -4 4 10 -13 16 -12 16 7 6 16 -9 21 -8 21 3 0 8 -5 12 -10 8
-5 -3 -4 4 2 16 13 23 23 29 15 8 -3 -8 3 -20 13 -28 16 -13 17 -12 4 4 -11
14 -11 17 0 18 8 1 18 1 22 0 5 -1 6 3 2 9 -3 6 -12 7 -18 3 -7 -4 -5 2 3 13
22 29 24 30 17 11 -5 -13 -3 -17 5 -15 7 3 14 10 14 16 3 23 4 24 21 11 15
-12 16 -12 10 3 -4 13 -2 15 10 11 12 -5 14 -3 8 7 -6 10 -4 11 6 4 31 -19 77
-6 62 19 -3 6 -1 7 6 3 6 -4 8 -12 5 -18 -4 -6 -2 -8 4 -4 5 3 13 0 16 -6 3
-7 3 -3 0 9 -4 18 -1 21 17 18 12 -2 31 -12 43 -22 11 -10 15 -11 9 -3 -20 22
-16 27 16 22 16 -2 32 1 35 7 10 15 17 14 14 -1z m1532 -13 c24 -9 65 -28 90
-42 26 -15 256 -238 545 -527 413 -413 506 -512 532 -561 73 -140 68 -293 -12
-432 -18 -30 -219 -238 -529 -549 -449 -449 -508 -504 -566 -532 -82 -40 -137
-52 -219 -48 -78 4 -162 32 -223 74 -63 43 -1015 1000 -1047 1053 -83 133 -86
295 -10 440 43 80 1031 1065 1104 1099 103 49 239 59 335 25z m-1530 -290 c0
-2 -6 -8 -13 -14 -10 -8 -14 -7 -14 2 0 8 6 14 14 14 7 0 13 -1 13 -2z m-183
-20 c0 -8 -4 -12 -9 -9 -5 3 -6 10 -3 15 9 13 12 11 12 -6z m-903 -344 c-10
-10 -21 -16 -24 -14 -3 3 4 11 14 19 28 20 33 17 10 -5z m321 -98 c-2 -10 -4
-19 -4 -21 -1 -2 -6 0 -11 3 -8 5 -7 11 1 21 15 18 18 18 14 -3z m-314 -396
c-10 -9 -11 -8 -5 6 3 10 9 15 12 12 3 -3 0 -11 -7 -18z m516 -2 c0 -8 -6 -16
-13 -19 -7 -3 -10 2 -7 15 6 22 20 26 20 4z m51 -1 c6 3 14 1 18 -5 4 -8 3 -9
-4 -5 -6 4 -16 -4 -22 -16 -11 -22 -10 -22 4 -4 9 11 16 16 16 12 0 -5 7 -2
17 5 13 11 17 11 20 1 3 -6 10 -9 15 -6 7 4 8 2 4 -5 -6 -9 -12 -9 -24 1 -15
12 -16 11 -3 -4 15 -20 41 -24 41 -7 0 6 7 3 16 -5 8 -9 21 -13 27 -9 7 4 6
-1 -2 -11 -12 -14 -12 -19 -2 -25 7 -5 10 -19 7 -34 -4 -24 -2 -26 13 -17 24
12 33 2 18 -21 -9 -15 -8 -21 8 -34 19 -16 19 -16 -3 -5 -13 7 -26 9 -30 6 -3
-3 0 -6 7 -6 7 0 9 -5 6 -10 -4 -6 -3 -10 2 -9 17 3 24 -1 18 -11 -4 -7 -14
-6 -28 2 -19 10 -20 9 -10 -4 7 -8 10 -18 6 -21 -3 -4 0 -15 8 -24 12 -16 12
-17 -1 -6 -12 9 -20 8 -35 -4 -20 -15 -20 -15 3 -8 13 4 22 2 22 -5 0 -6 -4
-8 -10 -5 -9 6 -14 -7 -11 -27 0 -4 -11 -3 -25 2 -36 14 -43 12 -15 -4 19 -11
21 -14 7 -19 -8 -3 -18 -2 -21 4 -4 5 -15 -1 -26 -13 l-20 -23 11 23 c7 13 9
26 6 30 -3 3 -6 0 -6 -7 0 -7 -5 -9 -12 -5 -6 4 -8 3 -4 -4 3 -6 2 -14 -4 -17
-8 -5 -7 -12 2 -23 15 -20 -30 14 -50 37 -13 16 -46 25 -36 10 3 -5 -2 -9 -11
-9 -9 0 -13 5 -10 10 3 6 -4 10 -17 10 -19 0 -20 -2 -8 -11 13 -9 13 -10 0 -6
-8 2 -15 8 -15 14 0 12 -31 44 -37 37 -5 -4 -4 22 1 48 0 4 9 5 19 2 16 -5 16
-5 -1 6 -9 6 -14 16 -11 22 4 6 2 8 -4 4 -6 -3 -13 -2 -17 4 -3 6 1 13 9 16
16 6 23 25 9 23 -19 -3 -33 2 -33 11 0 6 7 10 16 8 12 -2 18 6 21 25 2 16 0
26 -4 24 -5 -3 -10 4 -10 16 -2 17 0 19 7 7 9 -13 10 -13 11 0 1 8 1 18 0 23
0 4 5 6 11 5 7 -2 12 3 10 10 -1 8 2 11 7 8 5 -4 15 2 21 11 10 16 11 16 6 1
-3 -10 -1 -20 4 -23 6 -4 10 1 10 10 0 9 4 14 10 10 5 -3 6 -13 3 -23 -4 -13
-2 -13 10 3 12 15 19 17 25 8 5 -9 12 -6 21 10 13 21 13 21 -4 7 -17 -14 -17
-14 -4 7 8 14 16 18 20 11 4 -6 11 -8 17 -4z m162 -108 c0 -2 -7 -7 -16 -10
-8 -3 -12 -2 -9 4 6 10 25 14 25 6z m-343 -20 c0 -8 -6 -12 -15 -9 -11 5 -11
7 0 14 7 5 13 9 14 9 0 0 1 -6 1 -14z m-14 -53 c-7 -2 -13 -12 -13 -20 0 -9
-3 -14 -6 -10 -10 10 4 37 18 36 10 0 10 -2 1 -6z m-403 -23 c-6 -11 -13 -20
-16 -20 -2 0 0 9 6 20 6 11 13 20 16 20 2 0 0 -9 -6 -20z m411 -33 c-13 -13
-26 -3 -16 12 3 6 11 8 17 5 6 -4 6 -10 -1 -17z m354 -17 c3 -5 1 -10 -4 -10
-6 0 -11 5 -11 10 0 6 2 10 4 10 3 0 8 -4 11 -10z m-223 -120 c-2 -3 -7 1 -9
8 -3 6 -10 9 -16 5 -7 -4 -5 1 3 11 13 17 14 17 21 -1 3 -10 4 -20 1 -23z
m-328 -266 c3 -8 2 -12 -4 -9 -6 3 -10 10 -10 16 0 14 7 11 14 -7z m-319 -94
c-3 -5 -1 -10 6 -10 7 0 10 -3 6 -6 -9 -9 -28 6 -22 17 4 5 8 9 11 9 3 0 2 -4
-1 -10z m202 -205 c0 -8 -4 -12 -9 -9 -5 3 -6 10 -3 15 9 13 12 11 12 -6z
m1090 -258 c0 -8 -6 -14 -14 -14 -9 0 -10 4 -2 14 6 7 12 13 14 13 1 0 2 -6 2
-13z m343 -11 c0 -3 -4 -8 -10 -11 -5 -3 -10 -1 -10 4 0 6 5 11 10 11 6 0 10
-2 10 -4z m-1113 -51 c0 -8 -4 -12 -9 -9 -5 3 -6 10 -3 15 9 13 12 11 12 -6z
m1037 -190 c-4 -8 -13 -15 -22 -15 -13 0 -12 3 4 15 24 18 25 18 18 0z m-202
-12 c-6 -3 -10 -9 -6 -14 3 -5 0 -9 -5 -9 -6 0 -11 4 -11 8 0 12 23 32 29 25
3 -3 0 -8 -7 -10z m-202 -73 c0 -5 -5 -10 -11 -10 -5 0 -7 5 -4 10 3 6 8 10
11 10 2 0 4 -4 4 -10z m283 -23 c3 -8 -1 -14 -8 -14 -7 0 -11 6 -8 14 3 7 6
13 8 13 2 0 5 -6 8 -13z m-583 -17 c0 -5 -2 -10 -4 -10 -3 0 -8 5 -11 10 -3 6
-1 10 4 10 6 0 11 -4 11 -10z m500 -34 c0 -3 -4 -8 -10 -11 -5 -3 -10 -1 -10
4 0 6 5 11 10 11 6 0 10 -2 10 -4z m-123 -28 c2 -17 0 -19 -7 -8 -5 8 -6 18
-4 22 8 12 10 10 11 -14z m-57 2 c0 -5 -5 -10 -11 -10 -5 0 -7 5 -4 10 3 6 8
10 11 10 2 0 4 -4 4 -10z"/>
<path d="M1563 3573 c-7 -3 -13 -9 -13 -15 0 -7 4 -7 13 1 10 8 17 7 25 -1 7
-7 12 -8 12 -4 0 5 7 3 15 -4 10 -9 15 -9 15 -1 0 6 -4 12 -10 12 -19 3 -25 4
-35 10 -5 4 -16 4 -22 2z"/>
<path d="M1358 3533 c7 -3 16 -2 19 1 4 3 -2 6 -13 5 -11 0 -14 -3 -6 -6z"/>
<path d="M1680 3528 c-12 -8 -12 -9 2 -4 10 3 21 -1 26 -11 8 -13 10 -13 16 3
4 10 4 15 0 11 -4 -4 -12 -3 -18 3 -7 5 -17 5 -26 -2z"/>
<path d="M1827 3389 c7 -7 15 -10 18 -7 3 3 -2 9 -12 12 -14 6 -15 5 -6 -5z"/>
<path d="M1068 3303 c7 -3 16 -2 19 1 4 3 -2 6 -13 5 -11 0 -14 -3 -6 -6z"/>
<path d="M1629 3283 c-13 -16 -12 -17 4 -4 9 7 17 15 17 17 0 8 -8 3 -21 -13z"/>
<path d="M2018 3223 c6 -2 9 -10 6 -15 -4 -7 -2 -8 5 -4 13 9 5 26 -12 25 -9
0 -8 -2 1 -6z"/>
<path d="M1860 3149 c0 -5 5 -7 10 -4 6 3 10 8 10 11 0 2 -4 4 -10 4 -5 0 -10
-5 -10 -11z"/>
<path d="M1955 3091 c-3 -5 -2 -12 3 -15 5 -3 9 1 9 9 0 17 -3 19 -12 6z"/>
<path d="M2027 3075 c3 -8 9 -12 14 -9 12 7 11 11 -5 17 -10 4 -13 1 -9 -8z"/>
<path d="M995 3030 c-3 -5 -1 -10 4 -10 6 0 11 5 11 10 0 6 -2 10 -4 10 -3 0
-8 -4 -11 -10z"/>
<path d="M681 2914 c0 -11 3 -14 6 -6 3 7 2 16 -1 19 -3 4 -6 -2 -5 -13z"/>
<path d="M588 2823 c7 -3 16 -2 19 1 4 3 -2 6 -13 5 -11 0 -14 -3 -6 -6z"/>
<path d="M291 2546 c-9 -10 -8 -15 3 -19 9 -4 18 -1 22 5 5 7 2 8 -6 3 -10 -6
-12 -4 -7 8 8 21 3 22 -12 3z"/>
<path d="M266 2504 c-9 -24 -2 -26 12 -4 7 11 8 20 3 20 -5 0 -12 -7 -15 -16z"/>
<path d="M230 2429 c0 -5 5 -7 10 -4 6 3 10 8 10 11 0 2 -4 4 -10 4 -5 0 -10
-5 -10 -11z"/>
<path d="M179 2338 c-6 -21 -5 -37 2 -32 5 3 7 9 4 14 -3 4 1 11 7 13 10 4 10
6 1 6 -7 1 -13 0 -14 -1z"/>
<path d="M459 2323 c-13 -16 -12 -17 4 -4 9 7 17 15 17 17 0 8 -8 3 -21 -13z"/>
<path d="M577 1869 c7 -7 15 -10 18 -7 3 3 -2 9 -12 12 -14 6 -15 5 -6 -5z"/>
<path d="M600 1841 c0 -6 4 -13 10 -16 6 -3 7 1 4 9 -7 18 -14 21 -14 7z"/>
<path d="M705 1749 c-4 -6 -5 -12 -2 -15 2 -3 7 2 10 11 7 17 1 20 -8 4z"/>
<path d="M773 1666 c0 -8 8 -11 20 -8 14 4 16 7 5 13 -19 12 -25 11 -25 -5z"/>
<path d="M950 1504 c0 -8 5 -12 10 -9 6 4 8 11 5 16 -9 14 -15 11 -15 -7z"/>
<path d="M1966 1421 c-4 -5 -2 -12 3 -15 5 -4 12 -2 15 3 4 5 2 12 -3 15 -5 4
-12 2 -15 -3z"/>
<path d="M1040 1410 c-9 -6 -10 -10 -3 -10 6 0 15 5 18 10 8 12 4 12 -15 0z"/>
<path d="M1176 1292 c-3 -5 1 -9 9 -9 8 0 12 4 9 9 -3 4 -7 8 -9 8 -2 0 -6 -4
-9 -8z"/>
<path d="M1815 1270 c3 -5 8 -10 11 -10 2 0 4 5 4 10 0 6 -5 10 -11 10 -5 0
-7 -4 -4 -10z"/>
<path d="M1504 1192 c4 -3 14 -7 22 -8 9 -1 13 0 10 4 -4 3 -14 7 -22 8 -9 1
-13 0 -10 -4z"/>
<path d="M1915 1191 c-3 -5 -1 -13 5 -16 8 -5 7 -11 -1 -21 -6 -7 -14 -12 -18
-10 -4 3 -8 -5 -8 -17 -2 -19 0 -18 22 8 17 19 22 32 15 40 -5 6 -7 15 -3 18
3 4 4 7 0 7 -3 0 -8 -4 -12 -9z"/>
<path d="M1125 1120 c-16 -7 -17 -9 -3 -9 9 -1 20 4 23 9 7 11 7 11 -20 0z"/>
<path d="M1201 1046 c-9 -10 -8 -15 2 -19 8 -3 13 3 13 14 0 23 0 23 -15 5z"/>
<path d="M1385 930 c-3 -6 1 -7 9 -4 18 7 21 14 7 14 -6 0 -13 -4 -16 -10z"/>
<path d="M2863 3206 c-122 -31 -150 -53 -469 -371 -279 -278 -304 -306 -337
-375 -46 -95 -57 -145 -52 -245 4 -90 31 -175 78 -245 17 -25 161 -176 321
-335 254 -253 300 -294 357 -323 160 -78 340 -68 485 27 81 53 624 602 654
660 79 157 83 300 14 450 -33 71 -53 93 -327 369 -161 161 -313 307 -339 323
-79 51 -144 71 -243 75 -54 2 -111 -2 -142 -10z m-260 -800 c71 -32 109 -91
109 -167 -1 -54 -18 -92 -59 -131 -124 -117 -331 -3 -299 166 21 109 148 177
249 132z"/>
<path d="M937 2372 c-14 -15 -15 -19 -2 -19 8 0 11 5 8 10 -4 6 0 8 10 4 11
-4 14 -2 10 9 -7 18 -7 18 -26 -4z"/>
<path d="M1156 2371 c-3 -5 0 -14 8 -20 10 -9 15 -8 19 3 4 11 1 13 -10 9 -11
-4 -14 -2 -9 5 4 7 5 12 2 12 -3 0 -7 -4 -10 -9z"/>
<path d="M915 2330 c3 -5 8 -10 11 -10 2 0 4 5 4 10 0 6 -5 10 -11 10 -5 0 -7
-4 -4 -10z"/>
<path d="M906 2162 c-8 -13 40 -55 56 -49 8 4 7 6 -5 6 -10 1 -15 6 -12 11 4
6 1 9 -6 8 -7 -2 -13 2 -14 9 0 16 -12 26 -19 15z"/>
<path d="M1157 2119 c7 -7 15 -10 18 -7 3 3 -2 9 -12 12 -14 6 -15 5 -6 -5z"/>
<path d="M1055 2081 c-3 -5 -2 -12 3 -15 5 -3 9 1 9 9 0 17 -3 19 -12 6z"/>
<path d="M1540 3716 c0 -2 7 -6 15 -10 8 -3 15 -1 15 4 0 6 -7 10 -15 10 -8 0
-15 -2 -15 -4z"/>
<path d="M1095 3540 c-4 -6 -11 -8 -16 -5 -5 4 -9 1 -9 -4 0 -15 13 -14 36 4
10 8 14 15 7 15 -6 0 -15 -5 -18 -10z"/>
<path d="M1906 3537 c7 -21 31 -29 31 -11 0 8 -3 12 -5 9 -3 -3 -11 0 -19 7
-11 8 -12 7 -7 -5z"/>
<path d="M2045 3411 c-6 -11 13 -26 22 -17 4 3 1 6 -6 6 -7 0 -9 5 -6 10 3 6
4 10 1 10 -3 0 -7 -4 -11 -9z"/>
<path d="M95 2551 c-3 -5 -2 -12 3 -15 5 -3 9 1 9 9 0 17 -3 19 -12 6z"/>
<path d="M31 2194 c0 -11 3 -14 6 -6 3 7 2 16 -1 19 -3 4 -6 -2 -5 -13z"/>
<path d="M26 2157 c3 -10 9 -15 12 -12 3 3 0 11 -7 18 -10 9 -11 8 -5 -6z"/>
<path d="M70 2030 c0 -5 5 -10 11 -10 5 0 7 5 4 10 -3 6 -8 10 -11 10 -2 0 -4
-4 -4 -10z"/>
<path d="M430 1589 c0 -5 5 -7 10 -4 6 3 10 8 10 11 0 2 -4 4 -10 4 -5 0 -10
-5 -10 -11z"/>
<path d="M751 1274 c0 -11 3 -14 6 -6 3 7 2 16 -1 19 -3 4 -6 -2 -5 -13z"/>
<path d="M1085 949 c-4 -6 -5 -12 -2 -15 2 -3 7 2 10 11 7 17 1 20 -8 4z"/>
<path d="M1130 911 c0 -5 7 -12 16 -15 8 -3 13 -10 10 -14 -3 -5 2 -9 10 -9
11 0 9 6 -8 24 -24 25 -28 27 -28 14z"/>
<path d="M1840 895 c0 -5 5 -17 10 -25 5 -8 10 -10 10 -5 0 6 -5 17 -10 25 -5
8 -10 11 -10 5z"/>
<path d="M1306 797 c3 -10 9 -15 12 -12 3 3 0 11 -7 18 -10 9 -11 8 -5 -6z"/>
<path d="M1430 770 c0 -5 5 -10 11 -10 5 0 7 5 4 10 -3 6 -8 10 -11 10 -2 0
-4 -4 -4 -10z"/>
<path d="M1396 757 c3 -10 9 -15 12 -12 3 3 0 11 -7 18 -10 9 -11 8 -5 -6z"/>
<path d="M1506 762 c-3 -5 1 -9 9 -9 8 0 12 4 9 9 -3 4 -7 8 -9 8 -2 0 -6 -4
-9 -8z"/>
</g>
</svg>
